<?xml version="1.0" standalone="no"?>
<!DOCTYPE svg PUBLIC "-//W3C//DTD SVG 20010904//EN"
 "http://www.w3.org/TR/2001/REC-SVG-20010904/DTD/svg10.dtd">
<svg version="1.0" xmlns="http://www.w3.org/2000/svg"
 width="500.000000pt" height="500.000000pt" viewBox="0 0 500.000000 500.000000"
 preserveAspectRatio="xMidYMid meet">
<metadata>
Created by potrace 1.11, written by Peter Selinger 2001-2013
</metadata>
<g transform="translate(0.000000,500.000000) scale(0.100000,-0.100000)"
fill="#000000" stroke="none">
<path d="M2250 4988 c-112 -11 -364 -61 -470 -94 -243 -74 -495 -197 -705
-343 -44 -30 -82 -58 -85 -61 -3 -3 -39 -32 -80 -65 -71 -56 -229 -209 -296
-286 -205 -233 -397 -571 -489 -859 -31 -99 -71 -249 -79 -300 -3 -19 -7 -44
-10 -55 -2 -11 -7 -45 -11 -75 -4 -30 -10 -64 -12 -75 -12 -49 -10 -446 3
-549 15 -124 23 -175 29 -196 2 -8 6 -26 9 -40 19 -113 83 -317 143 -458 174
-410 446 -758 799 -1025 272 -205 562 -345 894 -431 101 -26 107 -27 270 -52
113 -18 443 -25 583 -12 166 16 397 65 549 117 708 242 1275 785 1543 1480 34
86 82 240 91 291 3 14 9 41 14 60 14 52 38 195 47 280 12 115 9 453 -6 570
-14 110 -52 295 -70 343 -6 15 -9 27 -6 27 7 0 -71 220 -109 306 -130 297
-311 561 -535 784 -199 197 -414 351 -666 474 -126 62 -334 143 -410 161 -11
2 -54 13 -95 24 -80 21 -88 22 -250 47 -119 18 -457 25 -590 12z m390 -562
c250 -16 499 -84 731 -201 190 -95 333 -198 484 -350 168 -167 238 -260 346
-458 106 -193 191 -454 214 -657 4 -30 8 -66 10 -80 5 -34 5 -305 0 -355 -2
-22 -6 -53 -8 -70 -3 -16 -8 -52 -12 -80 -9 -71 -59 -259 -94 -351 -95 -258
-243 -487 -445 -690 -251 -252 -552 -422 -894 -508 -95 -24 -120 -29 -212 -41
-25 -3 -61 -8 -80 -10 -44 -6 -328 -7 -356 -1 -11 2 -47 7 -79 10 -132 15
-375 80 -501 136 -292 129 -526 303 -738 550 -107 125 -253 378 -315 547 -30
81 -75 240 -86 298 -2 17 -7 41 -10 55 -3 14 -7 48 -10 75 -3 28 -8 64 -10 80
-6 41 -6 312 0 355 3 19 7 55 10 80 3 25 7 56 10 70 3 14 8 41 11 60 3 19 8
38 10 41 2 3 6 20 9 39 19 110 124 367 212 518 248 429 697 763 1191 886 146
36 207 45 367 52 61 3 115 7 120 8 6 2 15 2 20 0 6 -1 53 -5 105 -8z"/>
<path d="M1433 3837 c-3 -6 -7 -2372 -4 -2704 l1 -53 345 0 345 0 0 453 0 452
308 1 c514 1 641 16 847 101 167 70 329 222 418 393 84 162 122 419 92 613 -4
23 -9 56 -11 72 -9 55 -65 208 -101 278 -65 124 -221 258 -371 321 -78 33
-210 65 -299 73 -105 9 -1564 9 -1570 0z m1342 -511 c17 -3 40 -8 53 -11 44
-8 130 -53 169 -89 22 -19 55 -65 73 -101 29 -57 34 -77 38 -163 12 -261 -85
-400 -310 -447 -64 -14 -328 -21 -620 -16 l-58 1 0 418 0 418 313 -1 c171 -1
326 -5 342 -9z"/>
</g>
</svg>
